<mxfile host="app.diagrams.net" agent="Mozilla/5.0 (Windows NT 10.0; Win64; x64) AppleWebKit/537.36 (KHTML, like Gecko) Chrome/135.0.0.0 Safari/537.36" version="26.2.14">
  <diagram name="Page-1" id="q3-u8EmUtdTRaT_tD8bP">
    <mxGraphModel dx="1042" dy="562" grid="1" gridSize="10" guides="1" tooltips="1" connect="1" arrows="1" fold="1" page="1" pageScale="1" pageWidth="827" pageHeight="1169" math="0" shadow="0">
      <root>
        <mxCell id="0" />
        <mxCell id="1" parent="0" />
        <mxCell id="N4sR6RxIIG7fHlhEnFJ1-1" value="Shopping Cart" style="swimlane;whiteSpace=wrap;html=1;" vertex="1" parent="1">
          <mxGeometry x="40" y="30" width="760" height="370" as="geometry" />
        </mxCell>
        <mxCell id="N4sR6RxIIG7fHlhEnFJ1-6" value="" style="swimlane;shape=mxgraph.bootstrap.anchor;strokeColor=#999999;fillColor=#ffffff;fontColor=#666666;childLayout=stackLayout;horizontal=0;startSize=0;horizontalStack=1;resizeParent=1;resizeParentMax=0;resizeLast=0;collapsible=0;marginBottom=0;whiteSpace=wrap;html=1;" vertex="1" parent="N4sR6RxIIG7fHlhEnFJ1-1">
          <mxGeometry x="160" y="30" width="450" height="30" as="geometry" />
        </mxCell>
        <mxCell id="N4sR6RxIIG7fHlhEnFJ1-7" value="Shop&lt;span style=&quot;white-space: pre;&quot;&gt;&#x9;&lt;/span&gt;" style="text;strokeColor=inherit;align=center;verticalAlign=middle;spacingLeft=10;spacingRight=10;overflow=hidden;points=[[0,0.5],[1,0.5]];portConstraint=eastwest;rotatable=0;whiteSpace=wrap;html=1;fillColor=inherit;fontColor=inherit;fontSize=17;" vertex="1" parent="N4sR6RxIIG7fHlhEnFJ1-6">
          <mxGeometry width="90" height="30" as="geometry" />
        </mxCell>
        <mxCell id="N4sR6RxIIG7fHlhEnFJ1-8" value="Cart" style="text;strokeColor=inherit;align=center;verticalAlign=middle;spacingLeft=10;spacingRight=10;overflow=hidden;points=[[0,0.5],[1,0.5]];portConstraint=eastwest;rotatable=0;whiteSpace=wrap;html=1;fillColor=inherit;fontColor=inherit;fontSize=17;" vertex="1" parent="N4sR6RxIIG7fHlhEnFJ1-6">
          <mxGeometry x="90" width="90" height="30" as="geometry" />
        </mxCell>
        <mxCell id="N4sR6RxIIG7fHlhEnFJ1-9" value="Product" style="text;strokeColor=inherit;align=center;verticalAlign=middle;spacingLeft=10;spacingRight=10;overflow=hidden;points=[[0,0.5],[1,0.5]];portConstraint=eastwest;rotatable=0;whiteSpace=wrap;html=1;fillColor=inherit;fontColor=inherit;fontSize=17;" vertex="1" parent="N4sR6RxIIG7fHlhEnFJ1-6">
          <mxGeometry x="180" width="90" height="30" as="geometry" />
        </mxCell>
        <mxCell id="N4sR6RxIIG7fHlhEnFJ1-10" value="New" style="text;strokeColor=inherit;align=center;verticalAlign=middle;spacingLeft=10;spacingRight=10;overflow=hidden;points=[[0,0.5],[1,0.5]];portConstraint=eastwest;rotatable=0;whiteSpace=wrap;html=1;fillColor=inherit;fontColor=inherit;fontSize=17;" vertex="1" parent="N4sR6RxIIG7fHlhEnFJ1-6">
          <mxGeometry x="270" width="90" height="30" as="geometry" />
        </mxCell>
        <mxCell id="N4sR6RxIIG7fHlhEnFJ1-11" value="Admin" style="text;strokeColor=inherit;align=center;verticalAlign=middle;spacingLeft=10;spacingRight=10;overflow=hidden;points=[[0,0.5],[1,0.5]];portConstraint=eastwest;rotatable=0;whiteSpace=wrap;html=1;fillColor=inherit;fontColor=inherit;fontSize=17;" vertex="1" parent="N4sR6RxIIG7fHlhEnFJ1-6">
          <mxGeometry x="360" width="90" height="30" as="geometry" />
        </mxCell>
        <mxCell id="N4sR6RxIIG7fHlhEnFJ1-14" value="" style="ellipse;whiteSpace=wrap;html=1;" vertex="1" parent="N4sR6RxIIG7fHlhEnFJ1-1">
          <mxGeometry x="10" y="30" width="70" height="20" as="geometry" />
        </mxCell>
        <mxCell id="N4sR6RxIIG7fHlhEnFJ1-15" value="" style="shape=singleArrow;whiteSpace=wrap;html=1;" vertex="1" parent="N4sR6RxIIG7fHlhEnFJ1-1">
          <mxGeometry x="730" y="30" width="20" height="20" as="geometry" />
        </mxCell>
        <mxCell id="N4sR6RxIIG7fHlhEnFJ1-17" value="" style="whiteSpace=wrap;html=1;aspect=fixed;" vertex="1" parent="N4sR6RxIIG7fHlhEnFJ1-1">
          <mxGeometry x="240" y="90" width="80" height="80" as="geometry" />
        </mxCell>
        <mxCell id="N4sR6RxIIG7fHlhEnFJ1-18" value="" style="whiteSpace=wrap;html=1;aspect=fixed;" vertex="1" parent="N4sR6RxIIG7fHlhEnFJ1-1">
          <mxGeometry x="360" y="90" width="80" height="80" as="geometry" />
        </mxCell>
        <mxCell id="N4sR6RxIIG7fHlhEnFJ1-19" value="" style="whiteSpace=wrap;html=1;aspect=fixed;" vertex="1" parent="N4sR6RxIIG7fHlhEnFJ1-1">
          <mxGeometry x="480" y="90" width="80" height="80" as="geometry" />
        </mxCell>
        <mxCell id="N4sR6RxIIG7fHlhEnFJ1-20" value="" style="whiteSpace=wrap;html=1;aspect=fixed;" vertex="1" parent="N4sR6RxIIG7fHlhEnFJ1-1">
          <mxGeometry x="240" y="190" width="80" height="80" as="geometry" />
        </mxCell>
        <mxCell id="N4sR6RxIIG7fHlhEnFJ1-21" value="" style="whiteSpace=wrap;html=1;aspect=fixed;" vertex="1" parent="N4sR6RxIIG7fHlhEnFJ1-1">
          <mxGeometry x="360" y="190" width="80" height="80" as="geometry" />
        </mxCell>
        <mxCell id="N4sR6RxIIG7fHlhEnFJ1-22" value="" style="whiteSpace=wrap;html=1;aspect=fixed;" vertex="1" parent="N4sR6RxIIG7fHlhEnFJ1-1">
          <mxGeometry x="480" y="190" width="80" height="80" as="geometry" />
        </mxCell>
        <mxCell id="N4sR6RxIIG7fHlhEnFJ1-24" value="" style="verticalLabelPosition=bottom;verticalAlign=top;html=1;shape=mxgraph.basic.8_point_star" vertex="1" parent="N4sR6RxIIG7fHlhEnFJ1-1">
          <mxGeometry x="250" y="100" width="60" height="60" as="geometry" />
        </mxCell>
        <mxCell id="N4sR6RxIIG7fHlhEnFJ1-23" value="" style="verticalLabelPosition=bottom;verticalAlign=top;html=1;shape=mxgraph.basic.8_point_star" vertex="1" parent="N4sR6RxIIG7fHlhEnFJ1-1">
          <mxGeometry x="370" y="100" width="60" height="60" as="geometry" />
        </mxCell>
        <mxCell id="N4sR6RxIIG7fHlhEnFJ1-25" value="" style="verticalLabelPosition=bottom;verticalAlign=top;html=1;shape=mxgraph.basic.8_point_star" vertex="1" parent="N4sR6RxIIG7fHlhEnFJ1-1">
          <mxGeometry x="490" y="100" width="60" height="60" as="geometry" />
        </mxCell>
        <mxCell id="N4sR6RxIIG7fHlhEnFJ1-26" value="" style="verticalLabelPosition=bottom;verticalAlign=top;html=1;shape=mxgraph.basic.8_point_star" vertex="1" parent="N4sR6RxIIG7fHlhEnFJ1-1">
          <mxGeometry x="250" y="200" width="60" height="60" as="geometry" />
        </mxCell>
        <mxCell id="N4sR6RxIIG7fHlhEnFJ1-27" value="" style="verticalLabelPosition=bottom;verticalAlign=top;html=1;shape=mxgraph.basic.8_point_star" vertex="1" parent="N4sR6RxIIG7fHlhEnFJ1-1">
          <mxGeometry x="370" y="200" width="60" height="60" as="geometry" />
        </mxCell>
        <mxCell id="N4sR6RxIIG7fHlhEnFJ1-28" value="" style="verticalLabelPosition=bottom;verticalAlign=top;html=1;shape=mxgraph.basic.8_point_star" vertex="1" parent="N4sR6RxIIG7fHlhEnFJ1-1">
          <mxGeometry x="490" y="200" width="60" height="60" as="geometry" />
        </mxCell>
        <mxCell id="N4sR6RxIIG7fHlhEnFJ1-29" value="" style="verticalLabelPosition=bottom;verticalAlign=top;html=1;shape=mxgraph.basic.flash;direction=south;" vertex="1" parent="N4sR6RxIIG7fHlhEnFJ1-1">
          <mxGeometry x="22.5" y="35" width="45" height="10" as="geometry" />
        </mxCell>
        <mxCell id="N4sR6RxIIG7fHlhEnFJ1-13" value="" style="endArrow=none;html=1;rounded=0;" edge="1" parent="1">
          <mxGeometry width="50" height="50" relative="1" as="geometry">
            <mxPoint x="40" y="90" as="sourcePoint" />
            <mxPoint x="800" y="90" as="targetPoint" />
            <Array as="points" />
          </mxGeometry>
        </mxCell>
      </root>
    </mxGraphModel>
  </diagram>
</mxfile>
